<svg id="Capa_1" enable-background="new 0 0 512.157 512.157" height="512" viewBox="0 0 512.157 512.157" width="512" xmlns="http://www.w3.org/2000/svg"><g><path d="m454.925 180.611-159.274 87.112-239.245-148.775 1.453-62.127c2.668-32.042 29.446-56.687 61.601-56.687 245.662 0 240.909-.773 245.654 1.391l28.766 60.52 55.193 23.419c.907 1.999 1.391 4.173 1.391 6.398 2.421 29.538 3.915 59.128 4.461 88.749z" fill="#ebe9ff"/><path d="m450.464 333.704h-387.887c-6.025-114.497-8.096-133.576-6.171-214.755 12.153-2.435 6.816-1.824 127.448-1.824 35.144 0 68.577 15.166 91.727 41.624 11.364 12.982 27.777 20.431 45.045 20.431h118.093c5.522 0 10.942.484 16.207 1.432 1.113 58.327-1.4 94.833-4.462 153.092z" fill="#d0d0ff"/><path d="m499.331 447.995c-1.545 32.187-27.55 57.79-59.757 58.83l-164.662 5.162c-284.002-134.207-74.058-362.254-74.058-362.254 19.782 3.781 37.925 14.043 51.381 29.436 17.27 19.723 42.176 31.022 68.391 31.022h118.093c32.557 0 59.541 25.273 61.684 57.769 4.95 75.38 1.555 125.027-1.072 180.035z" fill="#f9e978"/><path d="m274.912 511.986c-36.597.584-46.188-.143-201.774-5.151-32.403-1.041-58.49-26.953-59.778-59.345-5.418-137.189-5.512-118.633-.278-240.193 1.432-33.083 28.653-59.16 61.766-59.16 120.927 0 114.715-.536 126.005 1.597-23.49 66.279-57.284 222.338 74.059 362.252z" fill="#ffcc6b"/><path d="m445.405 428.687c-3.05 21.263-20.351 37.369-41.49 39.131-53.431 4.451-107.007 6.481-160.572 6.089-165.466-83.846-62.992-231.034-62.992-231.034 71.54-3.107 146.425-1.936 223.564 4.482 21.28 1.773 38.459 18.004 41.49 39.141 3.369 23.583 6.959 93.499 0 142.191z" fill="#ffcc6b"/><path d="m243.343 473.907c-44.787-.33-89.554-2.359-134.217-6.089-21.153-1.762-38.442-17.88-41.49-39.131-6.516-45.592-6.97-93.402 0-142.191 3.031-21.137 20.21-37.368 41.49-39.141 23.717-1.968 47.466-3.472 71.225-4.482-6.11 65.825 3.822 149.516 62.992 231.034z" fill="#ffb151"/><g fill="#7293df"><path d="m180.577 311.655c-24.985-14.146-1.772-31.599-1.772-31.599 11.55.072 20.503 2.38 28.539 5.543 13.372 5.267 14.738 24.516-.989 30.579-4.306 1.679-13.245-2.488-25.778-4.523z"/><path d="m218.482 423.288c-1.37.948-2.833 1.875-4.42 2.761-28.354-1.38-13.518-30.507-13.518-30.507 4.036-2.302 8.67-2.866 13.621-1.185 12.858 4.266 15.413 21.224 4.317 28.931z"/></g><path d="m214.062 426.049c-9.18 5.172-21.966 9.118-38.533 9.118-45.086 0-81.631-34.731-81.631-77.582 0-44.985 39.782-79.412 84.907-77.53.103 10.262.67 20.812 1.772 31.599-28.162-4.777-55.595 16.814-55.595 45.931 0 25.706 21.554 46.549 48.125 46.549 17.922 0 24.584-7.003 27.437-8.593 3.885 10.118 8.367 20.298 13.518 30.508z" fill="#4677d5"/><g><path d="m292.409 290.117 35.285 80.772c1.329 2.978 6.625 2.947 7.902-.041l33.606-80.399c4.89-11.699 17.84-10.332 15.666-10.348 12.411.092 20.464 13.12 14.998 24.263l-63.002 128.428c-1.578 3.143-8.127 3.173-9.768.045l-65.759-128.292c-5.746-11.209 2.395-24.529 14.991-24.528 7.825-.001 13.51 4.215 16.081 10.1z" fill="#7293df"/></g><ellipse cx="170.424" cy="106.717" fill="#ffa1ac" rx="31.768" ry="25.299"/><ellipse cx="342.618" cy="106.717" fill="#ffa1ac" rx="31.768" ry="25.299"/><g><path d="m188.938 89.78c-4.268 0-7.727-3.46-7.727-7.727v-12.364c0-4.268 3.46-7.727 7.727-7.727 4.268 0 7.727 3.46 7.727 7.727v12.364c0 4.267-3.459 7.727-7.727 7.727z" fill="#49445f"/></g><g><path d="m232.877 87.054c-2.804-3.218-2.469-8.099.749-10.903 3.218-2.803 8.099-2.469 10.903.749 6.35 7.287 17.635 7.287 23.985 0 2.804-3.217 7.685-3.552 10.903-.749 13.182 11.491-25.023 35.591-46.54 10.903z" fill="#49445f"/></g><g><path d="m340.818 89.435c-4.268 0-7.727-3.46-7.727-7.727 0-3.639-2.961-6.6-6.6-6.6s-6.6 2.961-6.6 6.6c0 4.268-3.46 7.727-7.727 7.727-14.558 0-7.686-29.782 14.327-29.782 12.161 0 22.055 9.894 22.055 22.055-.001 4.268-3.461 7.727-7.728 7.727z" fill="#49445f"/></g><path d="m449.073 85.468h-37.596c-25.603 0-46.363-20.75-46.363-46.363v-37.576c3.948 1.804.731-.659 80.827 79.415 1.329 1.319 2.38 2.855 3.132 4.524z" fill="#d0d0ff"/></g></svg>